<?xml version="1.0" encoding="UTF-8"?>
<svg xmlns="http://www.w3.org/2000/svg" xmlns:xlink="http://www.w3.org/1999/xlink" width="193" height="193" viewBox="0 0 193 193">
<path fill="none" stroke-width="0.4" stroke-linecap="butt" stroke-linejoin="round" stroke="rgb(0%, 0%, 0%)" stroke-opacity="1" stroke-miterlimit="10" d="M 128 768 L 128 704 L 192 704 L 192 768 Z M 128 768 " transform="matrix(1, 0, 0, -1, -127, 769)"/>
<path fill="none" stroke-width="0.4" stroke-linecap="butt" stroke-linejoin="round" stroke="rgb(0%, 0%, 0%)" stroke-opacity="1" stroke-miterlimit="10" d="M 192 768 L 192 704 L 256 704 L 256 768 Z M 192 768 " transform="matrix(1, 0, 0, -1, -127, 769)"/>
<path fill="none" stroke-width="0.4" stroke-linecap="butt" stroke-linejoin="round" stroke="rgb(0%, 0%, 0%)" stroke-opacity="1" stroke-miterlimit="10" d="M 256 768 L 256 704 L 320 704 L 320 768 Z M 256 768 " transform="matrix(1, 0, 0, -1, -127, 769)"/>
<path fill="none" stroke-width="0.4" stroke-linecap="butt" stroke-linejoin="round" stroke="rgb(0%, 0%, 0%)" stroke-opacity="1" stroke-miterlimit="10" d="M 128 704 L 128 640 L 192 640 L 192 704 Z M 128 704 " transform="matrix(1, 0, 0, -1, -127, 769)"/>
<path fill="none" stroke-width="0.4" stroke-linecap="butt" stroke-linejoin="round" stroke="rgb(0%, 0%, 0%)" stroke-opacity="1" stroke-miterlimit="10" d="M 192 704 L 192 640 L 256 640 L 256 704 Z M 192 704 " transform="matrix(1, 0, 0, -1, -127, 769)"/>
<path fill="none" stroke-width="0.4" stroke-linecap="butt" stroke-linejoin="round" stroke="rgb(0%, 0%, 0%)" stroke-opacity="1" stroke-miterlimit="10" d="M 256 704 L 256 640 L 320 640 L 320 704 Z M 256 704 " transform="matrix(1, 0, 0, -1, -127, 769)"/>
<path fill="none" stroke-width="0.4" stroke-linecap="butt" stroke-linejoin="round" stroke="rgb(0%, 0%, 0%)" stroke-opacity="1" stroke-miterlimit="10" d="M 128 640 L 128 576 L 192 576 L 192 640 Z M 128 640 " transform="matrix(1, 0, 0, -1, -127, 769)"/>
<path fill="none" stroke-width="0.4" stroke-linecap="butt" stroke-linejoin="round" stroke="rgb(0%, 0%, 0%)" stroke-opacity="1" stroke-miterlimit="10" d="M 192 640 L 192 576 L 256 576 L 256 640 Z M 192 640 " transform="matrix(1, 0, 0, -1, -127, 769)"/>
<path fill="none" stroke-width="0.4" stroke-linecap="butt" stroke-linejoin="round" stroke="rgb(0%, 0%, 0%)" stroke-opacity="1" stroke-miterlimit="10" d="M 256 640 L 256 576 L 320 576 L 320 640 Z M 256 640 " transform="matrix(1, 0, 0, -1, -127, 769)"/>
<path fill-rule="evenodd" fill="rgb(0%, 0%, 0%)" fill-opacity="1" d="M 34.800781 33 C 34.800781 30.601562 31.199219 30.601562 31.199219 33 C 31.199219 35.398438 34.800781 35.398438 34.800781 33 Z M 34.800781 33 "/>
<path fill-rule="evenodd" fill="rgb(0%, 0%, 0%)" fill-opacity="1" d="M 98.800781 33 C 98.800781 30.601562 95.199219 30.601562 95.199219 33 C 95.199219 35.398438 98.800781 35.398438 98.800781 33 Z M 98.800781 33 "/>
<path fill-rule="evenodd" fill="rgb(0%, 0%, 0%)" fill-opacity="1" d="M 162.800781 33 C 162.800781 30.601562 159.199219 30.601562 159.199219 33 C 159.199219 35.398438 162.800781 35.398438 162.800781 33 Z M 162.800781 33 "/>
<path fill-rule="evenodd" fill="rgb(0%, 0%, 0%)" fill-opacity="1" d="M 34.800781 97 C 34.800781 94.601562 31.199219 94.601562 31.199219 97 C 31.199219 99.398438 34.800781 99.398438 34.800781 97 Z M 34.800781 97 "/>
<path fill-rule="evenodd" fill="rgb(0%, 0%, 0%)" fill-opacity="1" d="M 98.800781 97 C 98.800781 94.601562 95.199219 94.601562 95.199219 97 C 95.199219 99.398438 98.800781 99.398438 98.800781 97 Z M 98.800781 97 "/>
<path fill-rule="evenodd" fill="rgb(0%, 0%, 0%)" fill-opacity="1" d="M 162.800781 97 C 162.800781 94.601562 159.199219 94.601562 159.199219 97 C 159.199219 99.398438 162.800781 99.398438 162.800781 97 Z M 162.800781 97 "/>
<path fill-rule="evenodd" fill="rgb(0%, 0%, 0%)" fill-opacity="1" d="M 34.800781 161 C 34.800781 158.601562 31.199219 158.601562 31.199219 161 C 31.199219 163.398438 34.800781 163.398438 34.800781 161 Z M 34.800781 161 "/>
<path fill-rule="evenodd" fill="rgb(0%, 0%, 0%)" fill-opacity="1" d="M 98.800781 161 C 98.800781 158.601562 95.199219 158.601562 95.199219 161 C 95.199219 163.398438 98.800781 163.398438 98.800781 161 Z M 98.800781 161 "/>
<path fill-rule="evenodd" fill="rgb(0%, 0%, 0%)" fill-opacity="1" d="M 162.800781 161 C 162.800781 158.601562 159.199219 158.601562 159.199219 161 C 159.199219 163.398438 162.800781 163.398438 162.800781 161 Z M 162.800781 161 "/>
<path fill="none" stroke-width="1.2" stroke-linecap="butt" stroke-linejoin="round" stroke="rgb(0%, 0%, 0%)" stroke-opacity="1" stroke-miterlimit="10" d="M 224 672 L 224 736 " transform="matrix(1, 0, 0, -1, -127, 769)"/>
<path fill="none" stroke-width="1.2" stroke-linecap="butt" stroke-linejoin="round" stroke="rgb(0%, 0%, 0%)" stroke-opacity="1" stroke-miterlimit="10" d="M 224 672 L 160 736 " transform="matrix(1, 0, 0, -1, -127, 769)"/>
<path fill="none" stroke-width="1.2" stroke-linecap="butt" stroke-linejoin="round" stroke="rgb(0%, 0%, 0%)" stroke-opacity="1" stroke-miterlimit="10" d="M 224 672 L 160 672 " transform="matrix(1, 0, 0, -1, -127, 769)"/>
<path fill="none" stroke-width="1.2" stroke-linecap="butt" stroke-linejoin="round" stroke="rgb(0%, 0%, 0%)" stroke-opacity="1" stroke-miterlimit="10" d="M 224 672 L 160 608 " transform="matrix(1, 0, 0, -1, -127, 769)"/>
<path fill="none" stroke-width="1.2" stroke-linecap="butt" stroke-linejoin="round" stroke="rgb(0%, 0%, 0%)" stroke-opacity="1" stroke-miterlimit="10" d="M 224 672 L 224 608 " transform="matrix(1, 0, 0, -1, -127, 769)"/>
<path fill="none" stroke-width="1.2" stroke-linecap="butt" stroke-linejoin="round" stroke="rgb(0%, 0%, 0%)" stroke-opacity="1" stroke-miterlimit="10" d="M 224 672 L 288 608 " transform="matrix(1, 0, 0, -1, -127, 769)"/>
<path fill="none" stroke-width="1.2" stroke-linecap="butt" stroke-linejoin="round" stroke="rgb(0%, 0%, 0%)" stroke-opacity="1" stroke-miterlimit="10" d="M 224 672 L 288 672 " transform="matrix(1, 0, 0, -1, -127, 769)"/>
<path fill="none" stroke-width="1.2" stroke-linecap="butt" stroke-linejoin="round" stroke="rgb(0%, 0%, 0%)" stroke-opacity="1" stroke-miterlimit="10" d="M 224 672 L 288 736 " transform="matrix(1, 0, 0, -1, -127, 769)"/>
</svg>
