<?xml version="1.0" encoding="UTF-8"?>
<svg xmlns="http://www.w3.org/2000/svg" xmlns:xlink="http://www.w3.org/1999/xlink" width="195" height="195" viewBox="0 0 195 195">
<path fill="none" stroke-width="0.4" stroke-linecap="butt" stroke-linejoin="round" stroke="rgb(0%, 0%, 0%)" stroke-opacity="1" stroke-miterlimit="10" d="M 128 768 L 128 704 L 192 704 L 192 768 Z M 128 768 " transform="matrix(1, 0, 0, -1, -125, 769)"/>
<path fill="none" stroke-width="0.4" stroke-linecap="butt" stroke-linejoin="round" stroke="rgb(0%, 0%, 0%)" stroke-opacity="1" stroke-miterlimit="10" d="M 192 768 L 192 704 L 256 704 L 256 768 Z M 192 768 " transform="matrix(1, 0, 0, -1, -125, 769)"/>
<path fill="none" stroke-width="0.4" stroke-linecap="butt" stroke-linejoin="round" stroke="rgb(0%, 0%, 0%)" stroke-opacity="1" stroke-miterlimit="10" d="M 256 768 L 256 704 L 320 704 L 320 768 Z M 256 768 " transform="matrix(1, 0, 0, -1, -125, 769)"/>
<path fill="none" stroke-width="0.4" stroke-linecap="butt" stroke-linejoin="round" stroke="rgb(0%, 0%, 0%)" stroke-opacity="1" stroke-miterlimit="10" d="M 128 704 L 128 640 L 192 640 L 192 704 Z M 128 704 " transform="matrix(1, 0, 0, -1, -125, 769)"/>
<path fill="none" stroke-width="0.4" stroke-linecap="butt" stroke-linejoin="round" stroke="rgb(0%, 0%, 0%)" stroke-opacity="1" stroke-miterlimit="10" d="M 192 704 L 192 640 L 256 640 L 256 704 Z M 192 704 " transform="matrix(1, 0, 0, -1, -125, 769)"/>
<path fill="none" stroke-width="0.4" stroke-linecap="butt" stroke-linejoin="round" stroke="rgb(0%, 0%, 0%)" stroke-opacity="1" stroke-miterlimit="10" d="M 256 704 L 256 640 L 320 640 L 320 704 Z M 256 704 " transform="matrix(1, 0, 0, -1, -125, 769)"/>
<path fill="none" stroke-width="0.4" stroke-linecap="butt" stroke-linejoin="round" stroke="rgb(0%, 0%, 0%)" stroke-opacity="1" stroke-miterlimit="10" d="M 128 640 L 128 576 L 192 576 L 192 640 Z M 128 640 " transform="matrix(1, 0, 0, -1, -125, 769)"/>
<path fill="none" stroke-width="0.4" stroke-linecap="butt" stroke-linejoin="round" stroke="rgb(0%, 0%, 0%)" stroke-opacity="1" stroke-miterlimit="10" d="M 192 640 L 192 576 L 256 576 L 256 640 Z M 192 640 " transform="matrix(1, 0, 0, -1, -125, 769)"/>
<path fill="none" stroke-width="0.4" stroke-linecap="butt" stroke-linejoin="round" stroke="rgb(0%, 0%, 0%)" stroke-opacity="1" stroke-miterlimit="10" d="M 256 640 L 256 576 L 320 576 L 320 640 Z M 256 640 " transform="matrix(1, 0, 0, -1, -125, 769)"/>
<path fill-rule="evenodd" fill="rgb(0%, 0%, 0%)" fill-opacity="1" d="M 4.800781 65 C 4.800781 62.601562 1.199219 62.601562 1.199219 65 C 1.199219 67.398438 4.800781 67.398438 4.800781 65 Z M 4.800781 65 "/>
<path fill-rule="evenodd" fill="rgb(0%, 0%, 0%)" fill-opacity="1" d="M 132.800781 65 C 132.800781 62.601562 129.199219 62.601562 129.199219 65 C 129.199219 67.398438 132.800781 67.398438 132.800781 65 Z M 132.800781 65 "/>
<path fill-rule="evenodd" fill="rgb(0%, 0%, 0%)" fill-opacity="1" d="M 4.800781 129 C 4.800781 126.601562 1.199219 126.601562 1.199219 129 C 1.199219 131.398438 4.800781 131.398438 4.800781 129 Z M 4.800781 129 "/>
<path fill-rule="evenodd" fill="rgb(0%, 0%, 0%)" fill-opacity="1" d="M 68.800781 129 C 68.800781 126.601562 65.199219 126.601562 65.199219 129 C 65.199219 131.398438 68.800781 131.398438 68.800781 129 Z M 68.800781 129 "/>
<path fill-rule="evenodd" fill="rgb(0%, 0%, 0%)" fill-opacity="1" d="M 132.800781 129 C 132.800781 126.601562 129.199219 126.601562 129.199219 129 C 129.199219 131.398438 132.800781 131.398438 132.800781 129 Z M 132.800781 129 "/>
<path fill-rule="evenodd" fill="rgb(0%, 0%, 0%)" fill-opacity="1" d="M 4.800781 193 C 4.800781 190.601562 1.199219 190.601562 1.199219 193 C 1.199219 195.398438 4.800781 195.398438 4.800781 193 Z M 4.800781 193 "/>
<path fill-rule="evenodd" fill="rgb(0%, 0%, 0%)" fill-opacity="1" d="M 68.800781 193 C 68.800781 190.601562 65.199219 190.601562 65.199219 193 C 65.199219 195.398438 68.800781 195.398438 68.800781 193 Z M 68.800781 193 "/>
<path fill-rule="evenodd" fill="rgb(0%, 0%, 0%)" fill-opacity="1" d="M 132.800781 193 C 132.800781 190.601562 129.199219 190.601562 129.199219 193 C 129.199219 195.398438 132.800781 195.398438 132.800781 193 Z M 132.800781 193 "/>
<path fill="none" stroke-width="1.2" stroke-linecap="butt" stroke-linejoin="round" stroke="rgb(0%, 0%, 0%)" stroke-opacity="1" stroke-miterlimit="10" d="M 192 640 L 128 704 " transform="matrix(1, 0, 0, -1, -125, 769)"/>
<path fill="none" stroke-width="1.2" stroke-linecap="butt" stroke-linejoin="round" stroke="rgb(0%, 0%, 0%)" stroke-opacity="1" stroke-miterlimit="10" d="M 192 640 L 128 640 " transform="matrix(1, 0, 0, -1, -125, 769)"/>
<path fill="none" stroke-width="1.2" stroke-linecap="butt" stroke-linejoin="round" stroke="rgb(0%, 0%, 0%)" stroke-opacity="1" stroke-miterlimit="10" d="M 192 640 L 128 576 " transform="matrix(1, 0, 0, -1, -125, 769)"/>
<path fill="none" stroke-width="1.2" stroke-linecap="butt" stroke-linejoin="round" stroke="rgb(0%, 0%, 0%)" stroke-opacity="1" stroke-miterlimit="10" d="M 192 640 L 192 576 " transform="matrix(1, 0, 0, -1, -125, 769)"/>
<path fill="none" stroke-width="1.2" stroke-linecap="butt" stroke-linejoin="round" stroke="rgb(0%, 0%, 0%)" stroke-opacity="1" stroke-miterlimit="10" d="M 192 640 L 256 576 " transform="matrix(1, 0, 0, -1, -125, 769)"/>
<path fill="none" stroke-width="1.2" stroke-linecap="butt" stroke-linejoin="round" stroke="rgb(0%, 0%, 0%)" stroke-opacity="1" stroke-miterlimit="10" d="M 192 640 L 256 640 " transform="matrix(1, 0, 0, -1, -125, 769)"/>
<path fill="none" stroke-width="1.2" stroke-linecap="butt" stroke-linejoin="round" stroke="rgb(0%, 0%, 0%)" stroke-opacity="1" stroke-miterlimit="10" d="M 192 640 L 256 704 " transform="matrix(1, 0, 0, -1, -125, 769)"/>
<path fill="none" stroke-width="1.2" stroke-linecap="butt" stroke-linejoin="round" stroke="rgb(0%, 0%, 0%)" stroke-opacity="1" stroke-miterlimit="10" d="M 192 640 L 192 704 " transform="matrix(1, 0, 0, -1, -125, 769)"/>
<path fill-rule="evenodd" fill="rgb(0%, 0%, 0%)" fill-opacity="1" d="M 68.800781 65 C 68.800781 62.601562 65.199219 62.601562 65.199219 65 C 65.199219 67.398438 68.800781 67.398438 68.800781 65 Z M 68.800781 65 "/>
</svg>
